<?xml version="1.0" encoding="utf-8"?>
<!-- Generator: Adobe Illustrator 16.0.0, SVG Export Plug-In . SVG Version: 6.00 Build 0)  -->
<!DOCTYPE svg PUBLIC "-//W3C//DTD SVG 1.1//EN" "http://www.w3.org/Graphics/SVG/1.1/DTD/svg11.dtd">
<svg version="1.1" xmlns="http://www.w3.org/2000/svg" xmlns:xlink="http://www.w3.org/1999/xlink" x="0px" y="0px"
	 width="428.132px" height="432.607px" viewBox="0 0 428.132 432.607" enable-background="new 0 0 428.132 432.607"
	 xml:space="preserve">
<g id="Layer_1">
</g>
<g id="Layer_3">
</g>
<g id="Layer_4">
	<g>
		<g>
			<circle fill="#F1F2F2" cx="216.316" cy="239.304" r="166.197"/>
		</g>
		<path d="M398.367,187.942c-2.202-5.504-85.621-20.594-157.763-0.184c-0.401-0.455-7.6,2.051-11.221,2.522
			c-3.616,0.28-9.283,0.636-15.316,0.704c-6.033-0.068-11.7-0.424-15.316-0.704c-3.623-0.472-10.82-2.978-11.222-2.522
			c-72.142-20.41-155.561-5.32-157.762,0.184c-2.275,5.689-2.405,17.861,0,23.895c1.156,2.899,6.808,1.507,9.955,7.537
			c4.909,9.408,5.633,26.837,9.673,39.967c7.395,24.035,16.3,32.371,26.382,35.769c51.272,17.281,90.874-6.692,99.631-15.857
			c9.544-9.987,19.625-29.015,21.334-42.952c1.353-11.044,5.12-13.938,5.12-13.938c4.507-1.839,8.653-2.485,12.206-2.522
			c3.553,0.037,7.699,0.684,12.206,2.522c0,0,3.767,2.895,5.121,13.938c1.708,13.938,11.789,32.965,21.333,42.952
			c8.757,9.165,48.359,33.139,99.63,15.857c10.083-3.397,18.987-11.733,26.382-35.769c4.04-13.13,4.764-30.559,9.672-39.967
			c3.147-6.03,8.8-4.638,9.956-7.537C400.771,205.804,400.642,193.632,398.367,187.942z M189.201,218.38
			c1.188,28.705-12.402,49.974-22.045,59.082c-13.938,13.168-60.588,29.951-96.998,5.771c-13.815-9.174-23.917-46.061-15.646-78.508
			c2.901-11.379,33.851-19.596,65.708-19.201C195.634,186.462,189.049,214.681,189.201,218.38z M357.142,283.233
			c-36.41,24.18-83.06,7.396-96.998-5.771c-9.642-9.108-23.232-30.377-22.044-59.082c0.152-3.699-6.433-31.918,68.979-32.855
			c31.859-0.395,62.808,7.822,65.708,19.201C381.06,237.173,370.958,274.06,357.142,283.233z"/>
		<path opacity="0.8" fill="#D1D3D4" d="M189.11,218.174c1.188,28.705-12.402,49.974-22.045,59.083
			c-13.938,13.167-60.589,29.95-96.998,5.771c-13.815-9.174-23.918-46.062-15.646-78.508c2.901-11.379,33.851-19.597,65.708-19.201
			C195.543,186.257,188.958,214.476,189.11,218.174z"/>
		<path opacity="0.8" fill="#D1D3D4" d="M306.503,185.319c31.857-0.396,62.807,7.822,65.708,19.201
			c8.272,32.446-1.83,69.334-15.646,78.508c-36.409,24.179-83.061,7.396-96.998-5.771c-9.643-9.109-23.232-30.378-22.045-59.083
			C237.675,214.476,231.09,186.257,306.503,185.319z"/>
	</g>
</g>
<g id="Layer_2">
</g>
</svg>
