<?xml version="1.0" encoding="utf-8"?>
<!-- Generator: Adobe Illustrator 16.0.0, SVG Export Plug-In . SVG Version: 6.00 Build 0)  -->
<!DOCTYPE svg PUBLIC "-//W3C//DTD SVG 1.1//EN" "http://www.w3.org/Graphics/SVG/1.1/DTD/svg11.dtd">
<svg version="1.1" xmlns="http://www.w3.org/2000/svg" xmlns:xlink="http://www.w3.org/1999/xlink" x="0px" y="0px"
	 width="428.132px" height="390.082px" viewBox="0 0 428.132 390.082" enable-background="new 0 0 428.132 390.082"
	 xml:space="preserve">
<g id="Layer_1">
</g>
<g id="Layer_5">
</g>
<g id="Layer_3">
</g>
<g id="Layer_4">
</g>
<g id="Layer_2">
	<g>
		<g>
			<path fill="#FFFFFF" d="M182.399,201.964h-32.244v29.604h30.759c4.624-0.129,13.164-1.58,13.164-14.392
				C194.078,201.811,182.399,201.964,182.399,201.964z"/>
		</g>
		<g>
			<path fill="#FFFFFF" d="M180.401,184.889c5.225,0,9.835-1.671,9.835-13.196c0-11.524-7.837-11.524-7.837-11.524h-4.149h-28.095
				v24.721H180.401z"/>
		</g>
		<g>
			<path fill="#FFFFFF" d="M264.954,184.889c-17.112,0-19.494,17.075-19.494,17.075h36.389
				C281.848,201.964,282.066,184.889,264.954,184.889z"/>
		</g>
		<g>
			<g>
				<path fill="#FFFFFF" d="M214.067,31.533c-91.788,0-166.197,74.409-166.197,166.197c0,91.789,74.409,166.197,166.197,166.197
					c91.789,0,166.197-74.408,166.197-166.197C380.264,105.942,305.856,31.533,214.067,31.533z M240.689,147.005h45.703v13.643
					h-45.703V147.005z M217.588,218.56c0,33.807-35.189,32.697-35.189,32.697h-32.244h-0.947h-24.452V140.479h24.452h0.947h32.244
					c17.518,0,31.348,9.674,31.348,29.496c0,19.823-16.903,21.078-16.903,21.078C219.125,191.054,217.588,218.56,217.588,218.56z
					 M303.077,216.75h-57.4c0,20.579,19.495,19.274,19.495,19.274c18.411,0,17.762-11.91,17.762-11.91h19.494
					c0,31.623-37.905,29.457-37.905,29.457c-45.486,0-42.563-42.346-42.563-42.346s-0.038-42.563,42.562-42.563
					C309.357,168.662,303.077,216.75,303.077,216.75z"/>
			</g>
		</g>
	</g>
</g>
</svg>
