<?xml version="1.0" encoding="utf-8"?>
<!-- Generator: Adobe Illustrator 16.0.0, SVG Export Plug-In . SVG Version: 6.00 Build 0)  -->
<!DOCTYPE svg PUBLIC "-//W3C//DTD SVG 1.1//EN" "http://www.w3.org/Graphics/SVG/1.1/DTD/svg11.dtd">
<svg version="1.1" xmlns="http://www.w3.org/2000/svg" xmlns:xlink="http://www.w3.org/1999/xlink" x="0px" y="0px"
	 width="428.132px" height="390.082px" viewBox="0 0 428.132 390.082" enable-background="new 0 0 428.132 390.082"
	 xml:space="preserve">
<g id="Layer_1">
</g>
<g id="Layer_5">
</g>
<g id="Layer_3">
	<g>
		<g>
			<path fill="#FFFFFF" d="M217.986,221.768c-0.971,0.951-2.234,1.427-3.497,1.427c-1.253,0-2.507-0.469-3.476-1.406l-63.943-61.847
				v88.472h133.993v-88.375L217.986,221.768z"/>
		</g>
		<g>
			<g>
				<path fill="#FFFFFF" d="M214.066,31.533c-91.788,0-166.197,74.409-166.197,166.197c0,91.789,74.409,166.197,166.197,166.197
					c91.789,0,166.197-74.408,166.197-166.197C380.264,105.942,305.855,31.533,214.066,31.533z M291.062,253.413
					c0,2.762-2.239,5-5,5H142.07c-2.761,0-5-2.238-5-5V148.149c0-0.116,0.026-0.226,0.034-0.339c0.014-0.201,0.023-0.401,0.061-0.6
					c0.03-0.156,0.082-0.302,0.125-0.453c0.047-0.161,0.086-0.323,0.15-0.48c0.064-0.16,0.15-0.306,0.23-0.456
					c0.072-0.137,0.135-0.276,0.221-0.407c0.111-0.17,0.244-0.32,0.375-0.475c0.074-0.088,0.13-0.184,0.21-0.267
					c0.01-0.01,0.022-0.017,0.032-0.026c0.159-0.162,0.34-0.301,0.521-0.44c0.081-0.062,0.153-0.139,0.237-0.195
					c0.159-0.108,0.336-0.188,0.508-0.278c0.116-0.061,0.226-0.137,0.346-0.188c0.086-0.036,0.181-0.053,0.269-0.085
					c0.217-0.077,0.434-0.157,0.659-0.204c0.087-0.018,0.18-0.017,0.269-0.03c0.238-0.036,0.476-0.07,0.716-0.072
					c0.013,0,0.025-0.004,0.039-0.004h143.993c0.009,0,0.017,0.003,0.025,0.003c0.312,0.001,0.624,0.033,0.932,0.094
					c0.048,0.01,0.094,0.022,0.142,0.033c0.286,0.064,0.568,0.146,0.841,0.261c0.232,0.099,0.448,0.227,0.661,0.357
					c0.087,0.054,0.176,0.101,0.26,0.159c0.248,0.174,0.481,0.365,0.694,0.58c0.006,0.006,0.013,0.01,0.019,0.016
					c0.07,0.071,0.118,0.154,0.183,0.229c0.146,0.168,0.293,0.334,0.416,0.521c0.084,0.127,0.145,0.264,0.216,0.396
					c0.083,0.153,0.172,0.302,0.238,0.465c0.064,0.158,0.103,0.321,0.15,0.483c0.044,0.149,0.098,0.295,0.128,0.45
					c0.041,0.211,0.051,0.425,0.064,0.639c0.006,0.105,0.031,0.206,0.031,0.313V253.413z"/>
			</g>
		</g>
		<g>
			<polygon fill="#FFFFFF" points="273.805,153.149 154.431,153.149 214.469,211.219 			"/>
		</g>
	</g>
</g>
<g id="Layer_4">
</g>
<g id="Layer_2">
</g>
</svg>
