<?xml version="1.0" encoding="utf-8"?>
<!-- Generator: Adobe Illustrator 16.0.0, SVG Export Plug-In . SVG Version: 6.00 Build 0)  -->
<!DOCTYPE svg PUBLIC "-//W3C//DTD SVG 1.1//EN" "http://www.w3.org/Graphics/SVG/1.1/DTD/svg11.dtd">
<svg version="1.1" xmlns="http://www.w3.org/2000/svg" xmlns:xlink="http://www.w3.org/1999/xlink" x="0px" y="0px"
	 width="428.132px" height="390.082px" viewBox="0 0 428.132 390.082" enable-background="new 0 0 428.132 390.082"
	 xml:space="preserve">
<g id="Layer_1">
</g>
<g id="Layer_5">
</g>
<g id="Layer_3">
	<g>
		<path fill-rule="evenodd" clip-rule="evenodd" fill="#FFFFFF" d="M214,30.432c-93.201,0-168.779,75.561-168.779,168.779
			c0,74.57,48.36,137.835,115.422,160.154c8.434,1.561,11.532-3.664,11.532-8.121c0-4.022-0.156-17.32-0.229-31.424
			c-46.954,10.211-56.862-19.914-56.862-19.914c-7.678-19.506-18.741-24.695-18.741-24.695
			c-15.314-10.475,1.155-10.259,1.155-10.259c16.947,1.19,25.873,17.394,25.873,17.394c15.053,25.802,39.483,18.342,49.116,14.029
			c1.515-10.907,5.887-18.355,10.716-22.569c-37.489-4.267-76.899-18.74-76.899-83.411c0-18.426,6.594-33.481,17.392-45.303
			c-1.752-4.252-7.53-21.418,1.635-44.668c0,0,14.174-4.532,46.425,17.306c13.464-3.742,27.903-5.617,42.246-5.683
			c14.344,0.065,28.793,1.94,42.282,5.683c32.215-21.838,46.367-17.306,46.367-17.306c9.188,23.25,3.409,40.416,1.657,44.668
			c10.823,11.821,17.371,26.877,17.371,45.303c0,64.826-39.484,79.099-77.068,83.277c6.054,5.237,11.447,15.508,11.447,31.254
			c0,22.585-0.194,40.759-0.194,46.318c0,4.492,3.038,9.756,11.592,8.099C334.479,337,382.779,273.756,382.779,199.211
			C382.779,105.992,307.212,30.432,214,30.432z"/>
		<path fill="#FFFFFF" d="M109.146,272.761c-0.371,0.841-1.692,1.091-2.893,0.515c-1.226-0.551-1.911-1.695-1.515-2.535
			c0.363-0.861,1.684-1.102,2.907-0.526C108.871,270.765,109.57,271.92,109.146,272.761L109.146,272.761z M107.07,271.221"/>
		<path fill="#FFFFFF" d="M115.984,280.387c-0.805,0.745-2.38,0.397-3.447-0.781c-1.105-1.176-1.311-2.751-0.494-3.507
			c0.829-0.745,2.355-0.396,3.461,0.78C116.609,278.068,116.824,279.63,115.984,280.387L115.984,280.387z M114.374,278.658"/>
		<path fill="#FFFFFF" d="M122.639,290.105c-1.035,0.722-2.727,0.047-3.772-1.455c-1.034-1.5-1.034-3.302,0.024-4.023
			c1.045-0.721,2.713-0.07,3.772,1.417C123.694,287.57,123.694,289.371,122.639,290.105L122.639,290.105z M122.639,290.105"/>
		<path fill="#FFFFFF" d="M131.754,299.498c-0.925,1.021-2.896,0.745-4.337-0.647c-1.476-1.359-1.886-3.291-0.96-4.312
			c0.939-1.021,2.92-0.734,4.373,0.646C132.294,296.545,132.74,298.487,131.754,299.498L131.754,299.498z M131.754,299.498"/>
		<path fill="#FFFFFF" d="M144.332,304.951c-0.41,1.321-2.306,1.922-4.217,1.359c-1.91-0.58-3.158-2.126-2.773-3.462
			c0.396-1.331,2.304-1.956,4.228-1.355C143.478,302.068,144.727,303.606,144.332,304.951L144.332,304.951z M144.332,304.951"/>
		<path fill="#FFFFFF" d="M158.146,305.961c0.046,1.392-1.575,2.546-3.581,2.57c-2.017,0.047-3.652-1.08-3.674-2.45
			c0-1.405,1.585-2.547,3.603-2.582C156.5,303.461,158.146,304.58,158.146,305.961L158.146,305.961z M158.146,305.961"/>
		<path fill="#FFFFFF" d="M170.999,303.774c0.24,1.356-1.155,2.752-3.147,3.122c-1.96,0.36-3.772-0.48-4.023-1.825
			c-0.243-1.392,1.176-2.786,3.134-3.147C168.957,301.578,170.744,302.394,170.999,303.774L170.999,303.774z M170.999,303.774"/>
	</g>
</g>
<g id="Layer_4">
</g>
<g id="Layer_2">
</g>
</svg>
