<?xml version="1.0" encoding="utf-8"?>
<!-- Generator: Adobe Illustrator 16.0.0, SVG Export Plug-In . SVG Version: 6.00 Build 0)  -->
<!DOCTYPE svg PUBLIC "-//W3C//DTD SVG 1.1//EN" "http://www.w3.org/Graphics/SVG/1.1/DTD/svg11.dtd">
<svg version="1.1" xmlns="http://www.w3.org/2000/svg" xmlns:xlink="http://www.w3.org/1999/xlink" x="0px" y="0px"
	 width="428.132px" height="390.082px" viewBox="0 0 428.132 390.082" enable-background="new 0 0 428.132 390.082"
	 xml:space="preserve">
<g id="Layer_1">
</g>
<g id="Layer_5">
</g>
<g id="Layer_3">
</g>
<g id="Layer_4">
</g>
<g id="Layer_2">
	<g>
		<g>
			<path fill="#FFFFFF" d="M214.066,31.533c-91.788,0-166.197,74.409-166.197,166.197c0,91.789,74.409,166.197,166.197,166.197
				c91.789,0,166.197-74.408,166.197-166.197C380.264,105.942,305.855,31.533,214.066,31.533z M170.526,264.131h-30.497v-98.112
				h30.497V264.131z M155.077,153.98c-9.63,0-15.85-6.821-15.85-15.248c0-8.628,6.42-15.249,16.251-15.249
				s15.851,6.621,16.051,15.249C171.53,147.159,165.31,153.98,155.077,153.98z M288.1,264.131h-30.497v-54.373
				c0-12.64-4.414-21.268-15.449-21.268c-8.427,0-13.442,5.818-15.649,11.437c-0.803,2.007-1.003,4.815-1.003,7.624v56.58h-30.497
				v-66.812c0-12.239-0.401-22.472-0.802-31.3h26.484l1.405,13.644h0.602c4.013-6.42,13.844-15.851,30.296-15.851
				c20.064,0,35.112,13.443,35.112,42.335V264.131z"/>
		</g>
	</g>
</g>
</svg>
