<?xml version="1.0" encoding="utf-8"?>
<!-- Generator: Adobe Illustrator 16.0.0, SVG Export Plug-In . SVG Version: 6.00 Build 0)  -->
<!DOCTYPE svg PUBLIC "-//W3C//DTD SVG 1.1//EN" "http://www.w3.org/Graphics/SVG/1.1/DTD/svg11.dtd">
<svg version="1.1" xmlns="http://www.w3.org/2000/svg" xmlns:xlink="http://www.w3.org/1999/xlink" x="0px" y="0px"
	 width="428.132px" height="432.607px" viewBox="0 0 428.132 432.607" enable-background="new 0 0 428.132 432.607"
	 xml:space="preserve">
<g id="Layer_1">
</g>
<g id="Layer_3">
	<g>
		<g>
			<circle fill="#F1F2F2" cx="214.066" cy="239.256" r="166.197"/>
		</g>
		
			<line fill="none" stroke="#6D6E71" stroke-width="6" stroke-linecap="round" stroke-miterlimit="10" x1="213.066" y1="77.993" x2="213.066" y2="40.476"/>
		<path fill="#414042" d="M271.59,171.143c0,2.761-2.238,5-5,5H159.138c-2.762,0-5-2.239-5-5V77.142c0-2.761,2.238-5,5-5H266.59
			c2.762,0,5,2.239,5,5V171.143z"/>
		
			<line fill="none" stroke="#6D6E71" stroke-width="6" stroke-linecap="round" stroke-miterlimit="10" x1="295.591" y1="326.143" x2="295.591" y2="298.143"/>
		<circle fill="#A7A9AC" cx="186.758" cy="128.975" r="13.833"/>
		<circle fill="#A7A9AC" cx="238.532" cy="128.975" r="13.833"/>
		<path fill="none" stroke="#6D6E71" stroke-width="6" stroke-linecap="round" stroke-miterlimit="10" d="M283.757,339.072
			c0-6.588,5.342-11.93,11.932-11.93c6.589,0,11.931,5.342,11.931,11.93"/>
		
			<line fill="none" stroke="#6D6E71" stroke-width="6" stroke-linecap="round" stroke-miterlimit="10" x1="129.493" y1="326.143" x2="129.493" y2="298.143"/>
		<path fill="none" stroke="#6D6E71" stroke-width="6" stroke-linecap="round" stroke-miterlimit="10" d="M117.66,339.072
			c0-6.588,5.342-11.93,11.931-11.93s11.931,5.342,11.931,11.93"/>
		<path fill="#414042" d="M271.59,310.143c0,2.761-2.238,5-5,5h-53.833h-53.833c-2.762,0-5-2.239-5-5V187.475c0-2.761,2.238-5,5-5
			H266.59c2.762,0,5,2.239,5,5V310.143z"/>
		<g>
			<path fill="#414042" d="M209.234,405.384v-78.339c0-3.26-2.643-5.902-5.902-5.902H160.04c-3.26,0-5.902,2.643-5.902,5.902v67.272
				C154.138,394.317,183.851,406.575,209.234,405.384z"/>
		</g>
		<g>
			<path fill="#414042" d="M271.413,395.294v-68.249c0-3.26-2.643-5.902-5.903-5.902h-43.291c-3.26,0-5.902,2.643-5.902,5.902
				v78.388C216.316,405.433,239.735,406.278,271.413,395.294z"/>
		</g>
		<g>
			<path fill="#A7A9AC" d="M248.85,202.809c-6.888-4.07-10.246,2.445-10.629,3.252c-0.383-0.807-3.74-7.322-10.629-3.252
				c-7.333,4.334-1.333,11.666,0,13.5c1.274,1.752,9.828,10.326,10.592,11.091v0.076c0,0,0.028-0.029,0.037-0.038
				c0.01,0.009,0.038,0.038,0.038,0.038v-0.076c0.764-0.765,9.317-9.339,10.591-11.091
				C250.184,214.475,256.184,207.143,248.85,202.809z"/>
		</g>
		<g>
			<path fill="#414042" d="M313.592,310.143c0,2.761-2.238,5-5,5H282.59c-2.761,0-5-2.239-5-5V187.475c0-2.761,2.239-5,5-5h26.002
				c2.762,0,5,2.239,5,5V310.143z"/>
		</g>
		<g>
			<path fill="#414042" d="M147.592,310.143c0,2.761-2.238,5-5,5H116.59c-2.761,0-5-2.239-5-5V187.475c0-2.761,2.239-5,5-5h26.002
				c2.762,0,5,2.239,5,5V310.143z"/>
		</g>
		<circle fill="#6D6E71" cx="213.231" cy="36.282" r="9.14"/>
		<circle fill="#F1F2F2" cx="191.925" cy="124.945" r="5.166"/>
		<circle fill="#F1F2F2" cx="243.865" cy="124.945" r="5.166"/>
	</g>
</g>
<g id="Layer_4">
</g>
<g id="Layer_2">
</g>
</svg>
