<?xml version="1.0" encoding="utf-8"?>
<!-- Generator: Adobe Illustrator 16.0.0, SVG Export Plug-In . SVG Version: 6.00 Build 0)  -->
<!DOCTYPE svg PUBLIC "-//W3C//DTD SVG 1.1//EN" "http://www.w3.org/Graphics/SVG/1.1/DTD/svg11.dtd">
<svg version="1.1" xmlns="http://www.w3.org/2000/svg" xmlns:xlink="http://www.w3.org/1999/xlink" x="0px" y="0px"
	 width="428.132px" height="432.607px" viewBox="0 0 428.132 432.607" enable-background="new 0 0 428.132 432.607"
	 xml:space="preserve">
<g id="Layer_1">
</g>
<g id="Layer_3">
	<g>
		<g>
			<circle fill="#F1F2F2" cx="214.066" cy="240.5" r="166.198"/>
		</g>
		<path fill="#414042" d="M333.277,82.541c0-0.38-0.032-0.753-0.094-1.119c-0.608-3.584-4.094-6.332-8.305-6.332H100.342
			c-4.639,0-8.399,3.336-8.399,7.451v5.216h241.333"/>
		<rect x="91.943" y="113.09" fill="#6D6E71" width="241.333" height="106.807"/>
		<rect x="91.943" y="87.09" width="241.333" height="26"/>
		<circle cx="98.465" cy="81.371" r="2.134"/>
		<circle fill="#58595B" cx="104.804" cy="81.371" r="2.134"/>
		<circle fill="#F1F2F2" cx="111.341" cy="81.371" r="2.134"/>
		<rect x="91.943" y="219.896" fill="#414042" width="241.333" height="106.807"/>
		<path fill="#F1F2F2" d="M319.277,202.123c0,2.762-2.239,5-5,5H245.61c-2.761,0-5-2.238-5-5v-68.667c0-2.761,2.239-5,5-5h68.667
			c2.761,0,5,2.239,5,5V202.123z"/>
		<path fill="#F1F2F2" d="M185.875,307.634c0,2.762-2.239,5-5,5h-68.667c-2.761,0-5-2.238-5-5v-68.668c0-2.761,2.239-5,5-5h68.667
			c2.761,0,5,2.239,5,5V307.634z"/>
		
			<line fill="none" stroke="#F1F2F2" stroke-width="4" stroke-linecap="round" stroke-miterlimit="10" x1="106.938" y1="131.456" x2="169.277" y2="131.456"/>
		
			<line fill="none" stroke="#F1F2F2" stroke-width="2" stroke-linecap="round" stroke-miterlimit="10" x1="106.938" y1="143.457" x2="225.527" y2="143.457"/>
		
			<line fill="none" stroke="#F1F2F2" stroke-width="2" stroke-linecap="round" stroke-miterlimit="10" x1="106.938" y1="152.456" x2="225.527" y2="152.456"/>
		
			<line fill="none" stroke="#F1F2F2" stroke-width="2" stroke-linecap="round" stroke-miterlimit="10" x1="106.938" y1="161.456" x2="225.527" y2="161.456"/>
		
			<line fill="none" stroke="#F1F2F2" stroke-width="2" stroke-linecap="round" stroke-miterlimit="10" x1="106.938" y1="170.456" x2="225.527" y2="170.456"/>
		
			<line fill="none" stroke="#F1F2F2" stroke-width="2" stroke-linecap="round" stroke-miterlimit="10" x1="106.938" y1="179.457" x2="225.527" y2="179.457"/>
		
			<line fill="none" stroke="#F1F2F2" stroke-width="2" stroke-linecap="round" stroke-miterlimit="10" x1="106.938" y1="188.456" x2="225.527" y2="188.456"/>
		
			<line fill="none" stroke="#F1F2F2" stroke-width="2" stroke-linecap="round" stroke-miterlimit="10" x1="106.938" y1="197.457" x2="225.527" y2="197.457"/>
		
			<line fill="none" stroke="#F1F2F2" stroke-width="2" stroke-linecap="round" stroke-miterlimit="10" x1="106.938" y1="206.456" x2="225.527" y2="206.456"/>
		
			<line fill="none" stroke="#F1F2F2" stroke-width="4" stroke-linecap="round" stroke-miterlimit="10" x1="255.854" y1="236.966" x2="318.194" y2="236.966"/>
		
			<line fill="none" stroke="#F1F2F2" stroke-width="2" stroke-linecap="round" stroke-miterlimit="10" x1="199.604" y1="248.967" x2="318.194" y2="248.967"/>
		
			<line fill="none" stroke="#F1F2F2" stroke-width="2" stroke-linecap="round" stroke-miterlimit="10" x1="199.604" y1="257.966" x2="318.194" y2="257.966"/>
		
			<line fill="none" stroke="#F1F2F2" stroke-width="2" stroke-linecap="round" stroke-miterlimit="10" x1="199.604" y1="266.967" x2="318.194" y2="266.967"/>
		<g>
			<path d="M333.277,325.703H91.943v27.526h0c30.364,32.879,73.839,53.469,122.123,53.468c46.765,0,89.01-19.323,119.21-50.409
				V325.703z"/>
		</g>
		<g>
			<path d="M333.277,325.703H91.943v27.526h0c30.364,32.879,73.839,53.469,122.123,53.468c46.765,0,89.01-19.323,119.21-50.409
				V325.703z"/>
		</g>
		
			<line fill="none" stroke="#F1F2F2" stroke-width="2" stroke-linecap="round" stroke-miterlimit="10" x1="199.604" y1="275.966" x2="318.194" y2="275.966"/>
		
			<line fill="none" stroke="#F1F2F2" stroke-width="2" stroke-linecap="round" stroke-miterlimit="10" x1="199.604" y1="284.967" x2="318.194" y2="284.967"/>
		
			<line fill="none" stroke="#F1F2F2" stroke-width="2" stroke-linecap="round" stroke-miterlimit="10" x1="199.604" y1="293.966" x2="318.194" y2="293.966"/>
		
			<line fill="none" stroke="#F1F2F2" stroke-width="2" stroke-linecap="round" stroke-miterlimit="10" x1="199.604" y1="302.967" x2="318.194" y2="302.967"/>
		
			<line fill="none" stroke="#F1F2F2" stroke-width="2" stroke-linecap="round" stroke-miterlimit="10" x1="199.604" y1="311.966" x2="318.194" y2="311.966"/>
		<g>
			<path fill="none" stroke="#FFFFFF" stroke-width="4" stroke-miterlimit="10" d="M333.277,353.229"/>
			<path d="M333.277,353.229"/>
		</g>
		<path fill="#F1F2F2" d="M314.277,341.954H245.61c-2.761,0-5,2.239-5,5v58.626c29.554-4.746,56.497-17.288,78.667-35.446v-23.18
			C319.277,344.193,317.039,341.954,314.277,341.954z"/>
		
			<line fill="none" stroke="#F1F2F2" stroke-width="4" stroke-linecap="round" stroke-miterlimit="10" x1="106.938" y1="343.954" x2="169.277" y2="343.954"/>
		
			<line fill="none" stroke="#F1F2F2" stroke-width="2" stroke-linecap="round" stroke-miterlimit="10" x1="106.938" y1="355.955" x2="225.527" y2="355.955"/>
		
			<line fill="none" stroke="#F1F2F2" stroke-width="2" stroke-linecap="round" stroke-miterlimit="10" x1="106.938" y1="364.954" x2="225.527" y2="364.954"/>
		<path fill="#F1F2F2" d="M116.356,374.955h109.171c0.552,0,1-0.448,1-1s-0.448-1-1-1h-111.86
			C113.667,372.955,116.019,374.955,116.356,374.955z"/>
		<path fill="#F1F2F2" d="M130.096,383.954h95.431c0.552,0,1-0.447,1-1c0-0.552-0.448-1-1-1h-98.752
			C126.775,381.954,129.686,383.954,130.096,383.954z"/>
		<path fill="#F1F2F2" d="M147.788,392.955h77.739c0.552,0,1-0.448,1-1s-0.448-1-1-1h-82.156
			C143.371,390.955,146.633,392.524,147.788,392.955z"/>
	</g>
</g>
<g id="Layer_4">
</g>
<g id="Layer_2">
</g>
</svg>
